<svg xmlns="http://www.w3.org/2000/svg" xmlns:xlink="http://www.w3.org/1999/xlink" class="httpgd" width="395.83" height="375.00" viewBox="0 0 395.83 375.00">
<defs>
  <style type='text/css'><![CDATA[
    .httpgd line, .httpgd polyline, .httpgd polygon, .httpgd path, .httpgd rect, .httpgd circle {
      fill: none;
      stroke: #000000;
      stroke-linecap: round;
      stroke-linejoin: round;
      stroke-miterlimit: 10.00;
    }
  ]]></style>
<clipPath id="c0"><rect x="0.00" y="0.00" width="395.83" height="375.00"/></clipPath>
<clipPath id="c1"><rect x="38.22" y="5.48" width="352.13" height="338.95"/></clipPath>
<clipPath id="c2"><rect x="0.00" y="0.00" width="395.83" height="375.00"/></clipPath>
</defs>
<rect width="100%" height="100%" style="stroke: none;fill: #FFFFFF;"/>
<g clip-path="url(#c0)">
</g><g clip-path="url(#c1)">
<polyline points="54.23,329.03 56.65,317.15 57.54,316.61 134.93,202.14 374.35,20.89" style="stroke-width: 1.07;stroke: #4E79A7;stroke-linecap: butt;"/>
<polyline points="54.23,329.03 56.65,145.14 57.54,25.05 134.93,22.35 374.35,20.89" style="stroke-width: 1.07;stroke: #F28E2B;stroke-linecap: butt;"/>
<polyline points="54.23,329.03 56.65,136.81 57.54,27.51 134.93,20.99 374.35,20.89" style="stroke-width: 1.07;stroke: #E15759;stroke-linecap: butt;"/>
<polyline points="54.23,329.03 66.56,145.14 67.13,25.05 186.04,22.35 374.35,20.89" style="stroke-width: 1.07;stroke: #76B7B2;stroke-linecap: butt;"/>
<polyline points="54.23,329.03 66.56,136.81 67.13,27.51 186.04,20.99 374.35,20.89" style="stroke-width: 1.07;stroke: #59A14F;stroke-linecap: butt;"/>
<polyline points="54.23,329.03 245.26,136.81 370.03,27.51 372.83,20.99 374.35,20.89" style="stroke-width: 1.07;stroke: #EDC948;stroke-linecap: butt;"/>
<rect x="38.22" y="5.48" width="352.13" height="338.95" style="stroke-width: 1.07;"/>
</g><g clip-path="url(#c2)">
<g><text x="33.29" y="331.94" text-anchor="end" style="font-family: Times;font-size: 8.80px;fill: #4D4D4D;" textLength="15.39px" lengthAdjust="spacingAndGlyphs">0.00</text></g>
<g><text x="33.29" y="254.90" text-anchor="end" style="font-family: Times;font-size: 8.80px;fill: #4D4D4D;" textLength="15.39px" lengthAdjust="spacingAndGlyphs">0.25</text></g>
<g><text x="33.29" y="177.87" text-anchor="end" style="font-family: Times;font-size: 8.80px;fill: #4D4D4D;" textLength="15.39px" lengthAdjust="spacingAndGlyphs">0.50</text></g>
<g><text x="33.29" y="100.83" text-anchor="end" style="font-family: Times;font-size: 8.80px;fill: #4D4D4D;" textLength="15.39px" lengthAdjust="spacingAndGlyphs">0.75</text></g>
<g><text x="33.29" y="23.80" text-anchor="end" style="font-family: Times;font-size: 8.80px;fill: #4D4D4D;" textLength="15.39px" lengthAdjust="spacingAndGlyphs">1.00</text></g>
<polyline points="35.48,329.03 38.22,329.03" style="stroke-width: 1.07;stroke: #333333;stroke-linecap: butt;"/>
<polyline points="35.48,251.99 38.22,251.99" style="stroke-width: 1.07;stroke: #333333;stroke-linecap: butt;"/>
<polyline points="35.48,174.96 38.22,174.96" style="stroke-width: 1.07;stroke: #333333;stroke-linecap: butt;"/>
<polyline points="35.48,97.92 38.22,97.92" style="stroke-width: 1.07;stroke: #333333;stroke-linecap: butt;"/>
<polyline points="35.48,20.89 38.22,20.89" style="stroke-width: 1.07;stroke: #333333;stroke-linecap: butt;"/>
<polyline points="374.35,347.17 374.35,344.43" style="stroke-width: 1.07;stroke: #333333;stroke-linecap: butt;"/>
<polyline points="294.32,347.17 294.32,344.43" style="stroke-width: 1.07;stroke: #333333;stroke-linecap: butt;"/>
<polyline points="214.29,347.17 214.29,344.43" style="stroke-width: 1.07;stroke: #333333;stroke-linecap: butt;"/>
<polyline points="134.26,347.17 134.26,344.43" style="stroke-width: 1.07;stroke: #333333;stroke-linecap: butt;"/>
<polyline points="54.23,347.17 54.23,344.43" style="stroke-width: 1.07;stroke: #333333;stroke-linecap: butt;"/>
<g><text x="374.35" y="355.19" text-anchor="middle" style="font-family: Times;font-size: 8.80px;fill: #4D4D4D;" textLength="15.39px" lengthAdjust="spacingAndGlyphs">0.00</text></g>
<g><text x="294.32" y="355.19" text-anchor="middle" style="font-family: Times;font-size: 8.80px;fill: #4D4D4D;" textLength="15.39px" lengthAdjust="spacingAndGlyphs">0.25</text></g>
<g><text x="214.29" y="355.19" text-anchor="middle" style="font-family: Times;font-size: 8.80px;fill: #4D4D4D;" textLength="15.39px" lengthAdjust="spacingAndGlyphs">0.50</text></g>
<g><text x="134.26" y="355.19" text-anchor="middle" style="font-family: Times;font-size: 8.80px;fill: #4D4D4D;" textLength="15.39px" lengthAdjust="spacingAndGlyphs">0.75</text></g>
<g><text x="54.23" y="355.19" text-anchor="middle" style="font-family: Times;font-size: 8.80px;fill: #4D4D4D;" textLength="15.39px" lengthAdjust="spacingAndGlyphs">1.00</text></g>
<g><text x="214.29" y="367.12" text-anchor="middle" style="font-family: Times;font-size: 11.00px;" textLength="45.81px" lengthAdjust="spacingAndGlyphs">specificity</text></g>
<g><text transform="translate(12.76,174.96) rotate(-90.00)" text-anchor="middle" style="font-family: Times;font-size: 11.00px;" textLength="45.22px" lengthAdjust="spacingAndGlyphs">sensitivity</text></g>
<g><text x="255.04" y="228.59" style="font-family: Times;font-size: 11.00px;" textLength="54.08px" lengthAdjust="spacingAndGlyphs">ROC curves</text></g>
<line x1="256.76" y1="243.91" x2="270.59" y2="243.91" style="stroke-width: 1.07;stroke: #4E79A7;stroke-linecap: butt;"/>
<line x1="256.76" y1="261.19" x2="270.59" y2="261.19" style="stroke-width: 1.07;stroke: #F28E2B;stroke-linecap: butt;"/>
<line x1="256.76" y1="278.47" x2="270.59" y2="278.47" style="stroke-width: 1.07;stroke: #E15759;stroke-linecap: butt;"/>
<line x1="256.76" y1="295.75" x2="270.59" y2="295.75" style="stroke-width: 1.07;stroke: #76B7B2;stroke-linecap: butt;"/>
<line x1="256.76" y1="313.03" x2="270.59" y2="313.03" style="stroke-width: 1.07;stroke: #59A14F;stroke-linecap: butt;"/>
<line x1="256.76" y1="330.31" x2="270.59" y2="330.31" style="stroke-width: 1.07;stroke: #EDC948;stroke-linecap: butt;"/>
<g><text x="277.80" y="246.83" style="font-family: Times;font-size: 8.80px;" textLength="92.89px" lengthAdjust="spacingAndGlyphs">ADE4 vs. AD, AUC=0.58</text></g>
<g><text x="277.80" y="264.11" style="font-family: Times;font-size: 8.80px;" textLength="107.08px" lengthAdjust="spacingAndGlyphs">ADE4 vs. SCDE4, AUC=0.99</text></g>
<g><text x="277.80" y="281.39" style="font-family: Times;font-size: 8.80px;" textLength="97.31px" lengthAdjust="spacingAndGlyphs">ADE4 vs. SCD, AUC=0.99</text></g>
<g><text x="277.80" y="298.67" style="font-family: Times;font-size: 8.80px;" textLength="95.11px" lengthAdjust="spacingAndGlyphs">AD vs SCDE4, AUC=0.97</text></g>
<g><text x="277.80" y="315.95" style="font-family: Times;font-size: 8.80px;" textLength="87.54px" lengthAdjust="spacingAndGlyphs">AD vs. SCD, AUC=0.97</text></g>
<g><text x="277.80" y="333.23" style="font-family: Times;font-size: 8.80px;" textLength="101.72px" lengthAdjust="spacingAndGlyphs">SCDE4 vs. SCD, AUC=0.51</text></g>
</g>
</svg>